<?xml version="1.0" encoding="utf-8"?>
<!-- Generator: Adobe Illustrator 25.4.1, SVG Export Plug-In . SVG Version: 6.00 Build 0)  -->
<svg version="1.1"
	 id="Layer_1" inkscape:version="1.0.2 (e86c870879, 2021-01-15, custom)" sodipodi:docname="A-1_Pictures_Logo.svg" xmlns:cc="http://creativecommons.org/ns#" xmlns:dc="http://purl.org/dc/elements/1.1/" xmlns:inkscape="http://www.inkscape.org/namespaces/inkscape" xmlns:rdf="http://www.w3.org/1999/02/22-rdf-syntax-ns#" xmlns:sodipodi="http://sodipodi.sourceforge.net/DTD/sodipodi-0.dtd"
	 xmlns="http://www.w3.org/2000/svg" xmlns:xlink="http://www.w3.org/1999/xlink" x="0px" y="0px" viewBox="0 0 100 85.3"
	 style="enable-background:new 0 0 100 85.3;" xml:space="preserve">
<style type="text/css">
	.st0{fill:#FFFFFF;}
</style>
<sodipodi:namedview  bordercolor="#666666" borderopacity="1" gridtolerance="10" guidetolerance="10" inkscape:current-layer="g628" inkscape:cx="110.14248" inkscape:cy="16.645984" inkscape:pageopacity="0" inkscape:pageshadow="2" inkscape:window-height="1014" inkscape:window-maximized="1" inkscape:window-width="1920" inkscape:window-x="0" inkscape:window-y="36" inkscape:zoom="3.4775881" objecttolerance="10" pagecolor="#ffffff" showgrid="false">
	</sodipodi:namedview>
<g transform="translate(-470.6 -310.1)">
	<g>
		<g transform="matrix(2.641 0 0 -2.641 352.8 2242)">
			<g>
				<path class="st0" d="M76.8,731.3h-5.9l-1.9-4.7h4.9v-16.5h-6.5v18.2c0,1.6-1.3,2.9-2.9,2.9h-6.2c-0.7,0-1.4-0.3-1.9-0.7l-5-4.4
					c-0.6-0.6-1-1.4-1-2.2v-3.5h-3.7c0.2-0.1,0.3-0.3,0.3-0.5c0-0.3-0.3-0.6-0.6-0.6s-0.6,0.3-0.6,0.6c0,0.2,0.1,0.4,0.3,0.5h-0.9
					l0,0c-0.3,0-0.5-0.2-0.5-0.5s0.2-0.5,0.5-0.5l0,0c0.2,0,0.4-0.2,0.4-0.5c0-0.2-0.2-0.5-0.4-0.5l0,0c-0.3,0-0.5-0.2-0.5-0.5
					s0.2-0.5,0.5-0.5l0,0c0.2,0,0.4-0.2,0.4-0.5c0-0.2-0.2-0.5-0.4-0.5l0,0c-0.3,0-0.5-0.2-0.5-0.5s0.2-0.5,0.5-0.5l0,0H46
					c-0.2,0.1-0.2,0.3-0.2,0.5c0,0.3,0.3,0.6,0.6,0.6s0.6-0.3,0.6-0.6c0-0.2-0.1-0.4-0.2-0.5h3.7v-7.7c0.1,0.2,0.3,0.4,0.6,0.4
					c0.4,0,0.7-0.3,0.7-0.7S51.3,707,51,707s-0.5,0.1-0.6,0.4v-1.2l0,0c0-0.3,0.3-0.6,0.6-0.6s0.6,0.3,0.6,0.6l0,0
					c0,0.3,0.3,0.5,0.6,0.5s0.5-0.2,0.6-0.5l0,0c0-0.3,0.3-0.6,0.6-0.6s0.6,0.3,0.6,0.6l0,0c0,0.3,0.3,0.5,0.6,0.5s0.5-0.2,0.6-0.5
					l0,0c0-0.3,0.3-0.6,0.6-0.6s0.6,0.3,0.6,0.6v1.1c-0.1-0.2-0.3-0.3-0.6-0.3c-0.4,0-0.7,0.3-0.7,0.7s0.3,0.7,0.7,0.7
					c0.2,0,0.4-0.1,0.6-0.3v7.7h5.4v-7.2c0-1.6,1.3-2.9,2.9-2.9H77c1.6,0,2.9,1.3,2.9,2.9v19.8C79.7,730,78.4,731.3,76.8,731.3
					 M46.3,717.5c-0.3,0-0.6,0.3-0.6,0.6s0.3,0.6,0.6,0.6s0.6-0.3,0.6-0.6C46.9,717.8,46.6,717.5,46.3,717.5 M47.6,716.7
					c-0.2,0-0.4,0.2-0.4,0.4s0.2,0.4,0.4,0.4s0.4-0.2,0.4-0.4C48.1,716.9,47.9,716.7,47.6,716.7 M47.6,718.6c-0.2,0-0.4,0.2-0.4,0.4
					s0.2,0.4,0.4,0.4s0.4-0.2,0.4-0.4C48.1,718.8,47.9,718.6,47.6,718.6 M48.9,716c-0.2,0-0.3,0.1-0.3,0.3s0.1,0.3,0.3,0.3
					s0.3-0.1,0.3-0.3S49.1,716,48.9,716 M48.9,717.8c-0.2,0-0.3,0.1-0.3,0.3s0.1,0.3,0.3,0.3s0.3-0.1,0.3-0.3
					C49.2,718,49.1,717.8,48.9,717.8 M48.9,719.7c-0.2,0-0.3,0.1-0.3,0.3s0.1,0.3,0.3,0.3s0.3-0.1,0.3-0.3
					C49.2,719.9,49.1,719.7,48.9,719.7 M50.3,719.3c0.1,0,0.2-0.1,0.2-0.2s-0.1-0.2-0.2-0.2s-0.2,0.1-0.2,0.2S50.2,719.3,50.3,719.3
					 M50.3,717.3c0.1,0,0.2-0.1,0.2-0.2c0-0.1-0.1-0.2-0.2-0.2s-0.2,0.1-0.2,0.2C50.2,717.3,50.2,717.3,50.3,717.3 M50.9,710.5
					c-0.2,0-0.3,0.2-0.3,0.3c0,0.2,0.2,0.3,0.3,0.3s0.3-0.2,0.3-0.3C51.3,710.7,51.1,710.5,50.9,710.5 M54.4,712.8
					c0.1,0,0.2-0.1,0.2-0.2c0-0.1-0.1-0.2-0.2-0.2c-0.1,0-0.2,0.1-0.2,0.2S54.3,712.8,54.4,712.8 M53.3,711.2c0.2,0,0.3-0.2,0.3-0.3
					c0-0.2-0.2-0.3-0.3-0.3s-0.3,0.2-0.3,0.3C52.9,711.1,53.1,711.2,53.3,711.2 M52.1,712.8c0.1,0,0.2-0.1,0.2-0.2s-0.1-0.2-0.2-0.2
					c-0.1,0-0.2,0.1-0.2,0.2S52,712.8,52.1,712.8 M52.1,708.8c-0.3,0-0.5,0.2-0.5,0.5s0.2,0.5,0.5,0.5s0.5-0.2,0.5-0.5
					S52.4,708.8,52.1,708.8 M53.3,707c-0.4,0-0.7,0.3-0.7,0.7s0.3,0.7,0.7,0.7s0.7-0.3,0.7-0.7S53.7,707,53.3,707 M54.4,708.8
					c-0.3,0-0.5,0.2-0.5,0.5s0.2,0.5,0.5,0.5s0.5-0.2,0.5-0.5C55,709,54.7,708.8,54.4,708.8 M55.6,710.5c-0.2,0-0.3,0.2-0.3,0.3
					c0,0.2,0.2,0.3,0.3,0.3c0.2,0,0.3-0.2,0.3-0.3C55.9,710.7,55.8,710.5,55.6,710.5 M61.5,720.5h-5.4v3.3l3.1,2.8h2.2v-6.1"/>
			</g>
			<g transform="translate(0 .2221)">
				<path class="st0" d="M56.2,702.7v-3.6h-0.5v3.2H55v0.4L56.2,702.7L56.2,702.7z"/>
				<path class="st0" d="M62.9,702.2h-0.5v0.5h0.5V702.2z M62.9,699.1h-0.4v2.7h0.4V699.1z"/>
				<path class="st0" d="M69.4,701.8V700c0-0.2,0-0.6,0.7-0.6c0.1,0,0.4,0,0.6,0.2c0.1,0.1,0.2,0.4,0.2,0.6v1.6h0.4v-2.7h-0.4v0.3
					c-0.2-0.4-0.7-0.4-0.9-0.4c-0.7,0-1,0.3-1,0.9v1.8L69.4,701.8"/>
				<path class="st0" d="M72.6,701.8v-0.3c0.2,0.3,0.5,0.3,0.9,0.3c0.1,0,0.3,0,0.3,0v-0.4c-0.1,0-0.3,0-0.4,0c-0.2,0-0.4,0-0.6-0.2
					s-0.2-0.3-0.2-0.5V699h-0.4v2.7L72.6,701.8"/>
				<path class="st0" d="M79,700.6l-0.9,0.1c-0.3,0-0.4,0.1-0.4,0.3c0,0.4,0.2,0.5,0.8,0.5c0,0,1,0,1.1,0v0.4c0,0-1,0-1.1,0
					c-0.3,0-0.7,0-0.9-0.2c-0.3-0.2-0.3-0.4-0.3-0.6c0-0.6,0.5-0.6,0.6-0.7l0.9-0.1c0.3,0,0.4-0.1,0.4-0.4c0-0.3-0.1-0.4-0.7-0.4
					h-1.1v-0.4h1.1c0.5,0,1.2,0,1.2,0.8C79.6,700.4,79.3,700.6,79,700.6"/>
				<path class="st0" d="M64,700.4c0,0.9,0.3,1,0.9,1h0.9v0.4h-0.9c-0.9,0-1.3-0.3-1.3-1.4c0-1.1,0.4-1.4,1.3-1.4h0.9v0.4h-0.9
					C64.1,699.4,64,699.6,64,700.4"/>
				<path class="st0" d="M68.4,699.4H68c-0.6,0-0.6,0.1-0.6,0.4v1.5h0.8v0.4h-0.8v0.6H67v-0.6h-0.6v-0.4H67v-1.6
					c0-0.5,0.2-0.7,1-0.7c0,0,0.4,0,0.5,0L68.4,699.4"/>
				<path class="st0" d="M54.8,700.9h-1v-0.4h1V700.9z"/>
				<path class="st0" d="M74.5,700.3L74.5,700.3v0.3l0,0c0,0.5,0.1,0.8,0.9,0.8c0.7,0,0.8-0.2,0.8-0.8H75v-0.3h1.7
					c0,0.6,0,0.9-0.2,1.2s-0.6,0.3-1.1,0.3c-1.1,0-1.3-0.5-1.3-1.4c0-1,0.3-1.4,1.4-1.4c0,0,1,0,1.1,0v0.4h-1.1
					C74.5,699.4,74.5,699.7,74.5,700.3"/>
				<path class="st0" d="M60.6,702.7h-1.7v-3.6h0.5v3.2h1.2c0.4,0,0.7-0.1,0.7-0.7c0-0.6-0.3-0.7-0.7-0.7h-0.7v-0.4h0.7
					c0.7,0,1.2,0.3,1.2,1.1C61.7,702.4,61.3,702.7,60.6,702.7"/>
				<path class="st0" d="M52.3,702.7h-0.6l-1.4-3.6h0.5l1.2,3.2l0.7-1.9h-1V700h1.1l0.3-0.9h0.5L52.3,702.7z"/>
			</g>
		</g>
	</g>
</g>
</svg>
